<?xml version="1.0" encoding="UTF-8"?>
<svg version="1.1" xmlns="http://www.w3.org/2000/svg" width="290" height="96">
<path d="M0 0 C5.28 0 10.56 0 16 0 C16.01981934 1.25135742 16.03963867 2.50271484 16.06005859 3.79199219 C16.13615293 8.436402 16.22486463 13.08050008 16.31738281 17.72460938 C16.35565669 19.73431238 16.39051236 21.74408351 16.421875 23.75390625 C16.46755991 26.6434768 16.52554887 29.53257896 16.5859375 32.421875 C16.59748871 33.31992859 16.60903992 34.21798218 16.62094116 35.14324951 C16.64081085 35.98381897 16.66068054 36.82438843 16.68115234 37.69042969 C16.69447601 38.42767273 16.70779968 39.16491577 16.7215271 39.92449951 C17.1417451 43.05644758 18.10335196 45.31027074 20.625 47.25 C24.1310135 48.35716216 27.36363172 48.58988315 31 48 C34.35257489 45.85091353 34.89145337 44.42643319 35.875 40.5625 C36.00130762 36.96273284 35.7715742 35.10025484 34 32 C30.96474514 29.97649676 29.80573798 29.67875982 26.3125 29.375 C25.50425781 29.30023438 24.69601563 29.22546875 23.86328125 29.1484375 C23.24839844 29.09945312 22.63351563 29.05046875 22 29 C21.80613508 26.35448944 21.61961733 23.70882217 21.4375 21.0625 C21.38142578 20.30775391 21.32535156 19.55300781 21.26757812 18.77539062 C21.13823843 16.85254042 21.06483088 14.92610452 21 13 C22.59399326 11.40600674 24.22998725 11.7529333 26.4375 11.6875 C33.98959287 11.79538704 40.31649096 14.07074957 45.875 19.25 C52.33624215 26.52080677 53.73823995 32.48771179 53.4453125 42.30078125 C52.59467296 49.36705887 49.83582598 54.61483939 44.625 59.4375 C36.51879442 65.52577781 29.04827972 66.10362905 19 65 C12.15280352 62.98348271 6.75392462 59.10451293 3 53 C-0.17912779 46.97657274 -0.40058647 41.99616503 -0.29296875 35.25390625 C-0.28872391 34.24279282 -0.28447906 33.23167938 -0.28010559 32.18992615 C-0.26339754 28.98050599 -0.22575953 25.77172835 -0.1875 22.5625 C-0.17244301 20.37826432 -0.15875638 18.19401873 -0.14648438 16.00976562 C-0.11351973 10.6729319 -0.06179158 5.33657465 0 0 Z " fill="#042057" transform="translate(21,15)"/>
<path d="M0 0 C3.63 0 7.26 0 11 0 C11 15.84 11 31.68 11 48 C7.37 48 3.74 48 0 48 C-0.33 47.34 -0.66 46.68 -1 46 C-1.825 46.495 -2.65 46.99 -3.5 47.5 C-8.81407362 49.77746012 -12.83061637 49.7926594 -18.25 47.8125 C-22.89200471 44.75299689 -25.23804233 41.20304595 -27 36 C-27.86516907 28.70642353 -27.62503991 21.96084336 -23 16 C-18.79024939 12.26863014 -14.58752379 10.6883881 -9 11 C-6.10932077 11.82829078 -3.1684454 12.8315546 -1 15 C-0.67 10.05 -0.34 5.1 0 0 Z M-13.375 23.5 C-15.64786963 26.99672251 -15.83400089 29.93841566 -15 34 C-13.20064278 36.50624756 -11.8111808 37.60749316 -9.0625 38.9375 C-5.84154881 39.03510458 -4.44524102 38.05915033 -2 36 C-0.11538676 31.83814576 0.35136967 29.94869812 -1.25 25.625 C-2.73642619 22.92506235 -2.73642619 22.92506235 -5 22 C-8.50337981 21.61919785 -10.36278626 21.59754922 -13.375 23.5 Z " fill="#042057" transform="translate(149,22)"/>
<path d="M0 0 C0.76441406 0.07863281 1.52882813 0.15726563 2.31640625 0.23828125 C4.4375 0.6875 4.4375 0.6875 7.4375 2.6875 C7.7675 2.0275 8.0975 1.3675 8.4375 0.6875 C12.3975 0.6875 16.3575 0.6875 20.4375 0.6875 C20.4375 12.5675 20.4375 24.4475 20.4375 36.6875 C16.4775 36.6875 12.5175 36.6875 8.4375 36.6875 C8.1075 36.0275 7.7775 35.3675 7.4375 34.6875 C6.7775 35.1825 6.1175 35.6775 5.4375 36.1875 C1.68657939 38.0629603 -1.48278619 38.26572715 -5.5625 37.6875 C-10.71641743 35.86847032 -13.46864341 33.15640396 -16.5625 28.6875 C-19.13690922 22.71955136 -18.86864525 16.95321129 -17.5625 10.6875 C-15.17504351 5.99785332 -11.85692967 1.7879358 -6.69140625 0.0625 C-4.32771472 -0.35385667 -2.38214794 -0.27005738 0 0 Z M-5.5625 13.6875 C-6.63245896 17.53935224 -6.932511 19.76247251 -5.4375 23.5 C-3.19798824 26.11276372 -1.95658723 27.05604191 1.4375 27.6875 C5.75075131 26.14233351 5.75075131 26.14233351 8.4375 22.6875 C8.81919851 18.64149582 8.79814827 16.33944111 6.8125 12.75 C4.57190252 10.44132222 4.57190252 10.44132222 1.4375 10.1875 C-1.92960755 10.74868459 -3.31912843 11.11177709 -5.5625 13.6875 Z " fill="#042057" transform="translate(96.5625,33.3125)"/>
<path d="M0 0 C0.99 0.66 1.98 1.32 3 2 C3.33 1.34 3.66 0.68 4 0 C7.96 0 11.92 0 16 0 C16 11.88 16 23.76 16 36 C12.04 36 8.08 36 4 36 C3.67 35.34 3.34 34.68 3 34 C2.34 34.495 1.68 34.99 1 35.5 C-2.75092061 37.3754603 -5.92028619 37.57822715 -10 37 C-15.26594344 35.14143173 -17.79395768 32.39685804 -21 28 C-23.01260168 21.96219495 -23.14619401 14.50821065 -21.1640625 8.44140625 C-18.75744831 4.16926228 -15.6913494 1.48908693 -11.19140625 -0.44921875 C-7.3765141 -1.40804191 -3.76560481 -1.05466644 0 0 Z M-8.375 11.5 C-10.65921564 15.01417791 -10.68715135 17.91899134 -10 22 C-8.56018184 24.95541622 -7.66971742 25.73563786 -4.625 26.9375 C-1.23214991 27.01828215 0.31700046 26.01224965 3 24 C4.60160199 20.79679603 4.48770192 17.47573478 4 14 C2.54002013 11.37283423 2.54002013 11.37283423 0 10 C-3.60146865 9.39975523 -5.27859404 9.54437518 -8.375 11.5 Z " fill="#042057" transform="translate(227,34)"/>
<path d="M0 0 C3.72380258 3.28049274 6.05583653 6.60500958 7.625 11.3125 C7.625 13.9525 7.625 16.5925 7.625 19.3125 C-0.625 19.3125 -8.875 19.3125 -17.375 19.3125 C-16.385 20.9625 -15.395 22.6125 -14.375 24.3125 C-12.33214939 24.91274521 -12.33214939 24.91274521 -10.1875 24.625 C-8.929375 24.521875 -7.67125 24.41875 -6.375 24.3125 C-6.375 23.6525 -6.375 22.9925 -6.375 22.3125 C-2.085 22.3125 2.205 22.3125 6.625 22.3125 C4.36079262 29.10512213 4.36079262 29.10512213 1.25 31.625 C0.37214844 32.36169922 0.37214844 32.36169922 -0.5234375 33.11328125 C-4.92487432 35.96400088 -10.30361683 35.91207239 -15.375 35.3125 C-20.65301033 33.60572689 -24.41674041 31.09122703 -27.375 26.3125 C-30.06165704 20.26752167 -30.18140738 14.81660713 -28.1875 8.625 C-25.48754457 3.69059869 -21.79672126 -0.54692625 -16.3125 -2.375 C-10.50115389 -2.99322831 -5.26069952 -2.63034976 0 0 Z M-15.8125 9.1875 C-17.47373174 11.00717209 -17.47373174 11.00717209 -17.375 12.3125 C-13.085 12.3125 -8.795 12.3125 -4.375 12.3125 C-5.035 10.9925 -5.695 9.6725 -6.375 8.3125 C-11.40228802 6.81513408 -11.40228802 6.81513408 -15.8125 9.1875 Z " fill="#042057" transform="translate(194.375,35.6875)"/>
<path d="M0 0 C4.20760438 3.22284591 5.75872774 5.91354211 7 11 C7.23702614 15.12860455 7.18829422 19.24140041 7.125 23.375 C7.11597656 24.49261719 7.10695313 25.61023438 7.09765625 26.76171875 C7.07418457 29.50790512 7.03831655 32.25398063 7 35 C3.04 35 -0.92 35 -5 35 C-5.04898437 33.44667969 -5.09796875 31.89335938 -5.1484375 30.29296875 C-5.22346697 28.25779433 -5.29901472 26.22263896 -5.375 24.1875 C-5.4059375 23.16333984 -5.436875 22.13917969 -5.46875 21.08398438 C-5.50742187 20.10107422 -5.54609375 19.11816406 -5.5859375 18.10546875 C-5.63306885 16.74651489 -5.63306885 16.74651489 -5.68115234 15.36010742 C-5.86027919 12.73474608 -5.86027919 12.73474608 -8 10 C-10.52703937 8.9049496 -11.5881926 8.84704296 -14.1875 9.8125 C-16.15022193 10.88121987 -16.15022193 10.88121987 -17 13 C-17.15222973 14.66565749 -17.24917215 16.33656496 -17.31640625 18.0078125 C-17.35830078 18.99394531 -17.40019531 19.98007812 -17.44335938 20.99609375 C-17.48267578 22.02863281 -17.52199219 23.06117187 -17.5625 24.125 C-17.60568359 25.16527344 -17.64886719 26.20554687 -17.69335938 27.27734375 C-17.79962768 29.8513983 -17.90033527 32.42568131 -18 35 C-21.96 35 -25.92 35 -30 35 C-30 23.12 -30 11.24 -30 -1 C-26.04 -1 -22.08 -1 -18 -1 C-17.67 -0.34 -17.34 0.32 -17 1 C-15.2984375 0.195625 -15.2984375 0.195625 -13.5625 -0.625 C-8.64653005 -2.45541434 -4.80317371 -2.01659965 0 0 Z " fill="#042057" transform="translate(280,35)"/>
<path d="M0 0 C0 5.28 0 10.56 0 16 C-4.95 16 -9.9 16 -15 16 C-15.60402685 4.88590604 -15.60402685 4.88590604 -13.125 1.25 C-8.59122474 -0.5635101 -4.86724475 -0.25958639 0 0 Z " fill="#042057" transform="translate(15,28)"/>
<path d="M0 0 C0.90492187 0.02320313 1.80984375 0.04640625 2.7421875 0.0703125 C4.10730469 0.09738281 4.10730469 0.09738281 5.5 0.125 C6.19867188 0.14820313 6.89734375 0.17140625 7.6171875 0.1953125 C7.67141697 1.6323934 7.71008473 3.07006712 7.7421875 4.5078125 C7.76539063 5.30832031 7.78859375 6.10882813 7.8125 6.93359375 C7.6171875 9.1953125 7.6171875 9.1953125 5.6171875 12.1953125 C3.234375 12.48828125 3.234375 12.48828125 0.4921875 12.3828125 C-0.41789063 12.35574219 -1.32796875 12.32867187 -2.265625 12.30078125 C-2.96429688 12.26597656 -3.66296875 12.23117188 -4.3828125 12.1953125 C-4.43676728 10.57067408 -4.47558445 8.94552709 -4.5078125 7.3203125 C-4.53101563 6.41539063 -4.55421875 5.51046875 -4.578125 4.578125 C-4.30253953 1.21598231 -3.36214269 0.27558547 0 0 Z " fill="#FFF111" transform="translate(7.3828125,14.8046875)"/>
</svg>
